<?xml version="1.0" encoding="UTF-8"?>
<svg xmlns="http://www.w3.org/2000/svg" width="440" height="280" viewBox="0 0 440 280">
  <defs>
    <linearGradient id="bg2" x1="0%" y1="0%" x2="100%" y2="100%">
      <stop offset="0%" style="stop-color:#1a2370"/>
      <stop offset="50%" style="stop-color:#233895"/>
      <stop offset="100%" style="stop-color:#3a4fb8"/>
    </linearGradient>
  </defs>

  <!-- Background -->
  <rect width="440" height="280" fill="url(#bg2)"/>

  <!-- Decorative elements -->
  <circle cx="380" cy="50" r="120" fill="#ffffff" opacity="0.03"/>
  <circle cx="60" cy="240" r="80" fill="#ffffff" opacity="0.03"/>

  <!-- Grid dots -->
  <g opacity="0.08">
    <circle cx="40" cy="40" r="1.5" fill="#fff"/>
    <circle cx="80" cy="40" r="1.5" fill="#fff"/>
    <circle cx="120" cy="40" r="1.5" fill="#fff"/>
    <circle cx="160" cy="40" r="1.5" fill="#fff"/>
    <circle cx="200" cy="40" r="1.5" fill="#fff"/>
    <circle cx="40" cy="80" r="1.5" fill="#fff"/>
    <circle cx="80" cy="80" r="1.5" fill="#fff"/>
    <circle cx="120" cy="80" r="1.5" fill="#fff"/>
    <circle cx="160" cy="80" r="1.5" fill="#fff"/>
    <circle cx="200" cy="80" r="1.5" fill="#fff"/>
  </g>

  <!-- Icon representation -->
  <g transform="translate(320, 80)">
    <rect x="0" y="0" width="80" height="80" rx="16" fill="#ffffff" opacity="0.1"/>
    <g transform="translate(16, 16)">
      <path d="M8 24 L24 8 L40 24 M24 8 L24 40" stroke="#ffffff" stroke-width="3" fill="none" stroke-linecap="round" stroke-linejoin="round" opacity="0.8"/>
      <circle cx="24" cy="40" r="4" fill="#ffffff" opacity="0.6"/>
      <circle cx="8" cy="24" r="3" fill="#28c840"/>
      <circle cx="40" cy="24" r="3" fill="#febc2e"/>
    </g>
  </g>

  <!-- Title -->
  <text x="40" y="110" font-family="SF Pro Display, -apple-system, sans-serif" font-size="42" font-weight="700" fill="#ffffff" letter-spacing="-1">Dev Proxy</text>

  <!-- Subtitle -->
  <text x="40" y="148" font-family="SF Pro Display, -apple-system, sans-serif" font-size="16" fill="#ffffff" opacity="0.7">Developer Toolkit for Chrome</text>

  <!-- Feature pills -->
  <rect x="40" y="175" width="90" height="28" rx="14" fill="#ffffff" opacity="0.12"/>
  <text x="85" y="194" font-family="SF Pro Display, -apple-system, sans-serif" font-size="11" fill="#ffffff" text-anchor="middle" opacity="0.85">Headers</text>

  <rect x="140" y="175" width="75" height="28" rx="14" fill="#ffffff" opacity="0.12"/>
  <text x="177" y="194" font-family="SF Pro Display, -apple-system, sans-serif" font-size="11" fill="#ffffff" text-anchor="middle" opacity="0.85">Proxy</text>

  <rect x="225" y="175" width="80" height="28" rx="14" fill="#ffffff" opacity="0.12"/>
  <text x="265" y="194" font-family="SF Pro Display, -apple-system, sans-serif" font-size="11" fill="#ffffff" text-anchor="middle" opacity="0.85">Scripts</text>

  <rect x="40" y="212" width="90" height="28" rx="14" fill="#ffffff" opacity="0.12"/>
  <text x="85" y="231" font-family="SF Pro Display, -apple-system, sans-serif" font-size="11" fill="#ffffff" text-anchor="middle" opacity="0.85">Redirect</text>

  <rect x="140" y="212" width="85" height="28" rx="14" fill="#ffffff" opacity="0.12"/>
  <text x="182" y="231" font-family="SF Pro Display, -apple-system, sans-serif" font-size="11" fill="#ffffff" text-anchor="middle" opacity="0.85">Scenes</text>

  <!-- Bottom text -->
  <text x="40" y="264" font-family="SF Pro Display, -apple-system, sans-serif" font-size="11" fill="#ffffff" opacity="0.35">Manifest V3 | Open Source | Lightweight</text>
</svg>
